<?xml version="1.0" standalone="no"?>
<!DOCTYPE svg PUBLIC "-//W3C//DTD SVG 20010904//EN"
 "http://www.w3.org/TR/2001/REC-SVG-20010904/DTD/svg10.dtd">
<svg version="1.0" xmlns="http://www.w3.org/2000/svg"
 width="1089.000000pt" height="599.000000pt" viewBox="0 0 1089.000000 599.000000"
 preserveAspectRatio="xMidYMid meet">

<g transform="translate(0.000000,599.000000) scale(0.100000,-0.100000)"
fill="#000000" stroke="none">
<path d="M0 5945 l0 -45 1387 0 c762 0 1384 -2 1381 -5 -3 -3 -455 -10 -1004
-16 -1711 -19 -1734 -20 -1734 -31 0 -7 99 -8 323 -4 177 3 660 8 1072 11 413
3 854 9 980 15 127 5 550 12 940 15 391 3 760 8 821 11 l111 7 6 -41 c8 -49
47 -98 94 -117 41 -17 79 -19 88 -5 3 6 17 10 31 10 13 0 24 5 24 10 0 14 -26
13 -49 -2 -15 -9 -28 -9 -60 2 -52 17 -90 57 -98 103 l-6 37 122 0 121 0 0
-40 c0 -58 17 -87 68 -110 l44 -21 42 20 c57 26 69 44 70 102 1 47 2 49 29 49
26 0 27 -2 28 -52 2 -64 2 -59 -6 -80 -5 -13 -2 -18 12 -18 18 0 19 6 17 75
l-3 75 55 0 c52 0 54 -1 55 -27 3 -106 5 -118 20 -121 14 -2 15 7 11 73 l-5
75 42 0 41 0 0 -49 c0 -78 13 -101 55 -101 19 0 35 5 35 11 0 6 -6 9 -12 6 -7
-2 -21 0 -30 5 -14 7 -18 22 -18 68 l0 60 61 0 61 0 -4 -75 c-3 -73 -3 -75 21
-75 17 0 21 3 14 13 -6 6 -11 40 -12 75 l-2 62 50 0 c28 0 50 -3 50 -7 -12
-75 42 -143 114 -143 29 0 50 7 68 23 29 25 53 85 43 110 -5 14 0 17 25 17
l31 0 0 -75 c0 -43 4 -75 10 -75 6 0 10 32 10 75 l0 75 36 0 36 0 -4 -75 c-3
-64 -1 -75 12 -73 12 3 14 17 11 76 -3 72 -3 72 23 72 22 0 26 -5 26 -27 0
-40 34 -91 75 -110 30 -14 40 -15 74 -3 22 7 42 19 45 26 4 10 -4 10 -36 -2
-23 -8 -50 -12 -60 -8 -29 9 -68 56 -68 81 0 22 3 23 90 23 53 0 90 4 90 10 0
6 11 10 25 10 23 0 24 -3 27 -67 2 -46 7 -68 17 -71 11 -4 13 6 8 52 -3 32 -3
64 0 72 4 12 345 14 2414 14 l2409 0 0 45 0 45 -5445 0 -5445 0 0 -45z m4744
-61 c16 -40 6 -82 -25 -108 -34 -29 -53 -32 -90 -14 -35 16 -56 65 -51 121 2
15 13 17 81 17 63 0 80 -3 85 -16z m793 -29 c-7 -65 -30 -87 -86 -83 -39 3
-49 8 -68 37 -13 19 -23 47 -23 62 l0 29 91 0 92 0 -6 -45z"/>
<path d="M5425 5600 c-3 -5 3 -10 15 -10 12 0 18 5 15 10 -3 6 -10 10 -15 10
-5 0 -12 -4 -15 -10z"/>
<path d="M4531 5573 c0 -25 1 -26 9 -7 5 14 16 20 32 18 12 -1 27 -3 31 -3 4
-1 7 -49 6 -108 -1 -81 2 -108 11 -108 9 0 12 27 11 107 -1 60 2 109 8 112 5
3 21 2 34 -3 19 -8 27 -6 31 5 4 11 -10 14 -84 14 l-90 0 1 -27z"/>
<path d="M4780 5540 c0 -5 7 -10 16 -10 8 0 12 5 9 10 -3 6 -10 10 -16 10 -5
0 -9 -4 -9 -10z"/>
<path d="M4995 5540 c-4 -6 6 -10 23 -10 24 0 33 -7 46 -35 27 -57 3 -111 -55
-118 -33 -4 -32 -4 7 -5 34 -2 45 2 58 23 9 13 16 43 16 66 0 33 -6 47 -27 65
-29 25 -58 31 -68 14z"/>
<path d="M5435 5460 c0 -62 4 -90 12 -90 8 0 11 24 9 80 -3 114 -21 121 -21
10z"/>
<path d="M5530 5537 c-40 -33 -49 -80 -25 -126 21 -41 99 -57 125 -26 8 9 9
15 2 15 -6 0 -14 -4 -17 -10 -12 -19 -51 -10 -79 19 -27 28 -28 35 -9 104 2 9
13 17 24 17 10 0 19 5 19 10 0 14 -22 12 -40 -3z"/>
<path d="M5580 5540 c0 -5 9 -10 20 -10 11 0 21 -7 21 -15 3 -31 4 -35 14 -36
20 -1 16 30 -6 50 -24 22 -49 28 -49 11z"/>
<path d="M5680 5544 c0 -4 12 -42 27 -85 27 -77 53 -104 53 -54 0 14 -6 25
-13 25 -7 0 -19 21 -26 48 -20 72 -20 72 -31 72 -5 0 -10 -3 -10 -6z"/>
<path d="M5773 5505 c-1 -31 3 -45 11 -45 7 0 19 -18 26 -40 15 -47 27 -50 40
-12 6 15 15 35 20 44 13 23 13 38 0 38 -5 0 -10 -8 -10 -18 0 -10 -6 -27 -14
-38 -14 -19 -15 -19 -21 1 -4 11 -11 28 -16 37 -5 10 -9 31 -9 48 0 50 -25 36
-27 -15z"/>
<path d="M5876 5542 c-2 -4 -1 -14 3 -21 6 -10 10 -9 14 3 6 16 -8 32 -17 18z"/>
<path d="M5250 5532 c0 -20 44 -138 56 -151 11 -13 14 -12 20 3 4 11 -1 25
-15 40 -11 12 -21 28 -21 36 0 22 -23 80 -32 80 -4 0 -8 -4 -8 -8z"/>
<path d="M5360 5531 c0 -6 5 -13 10 -16 6 -3 10 1 10 9 0 9 -4 16 -10 16 -5 0
-10 -4 -10 -9z"/>
<path d="M4718 5495 c-28 -56 1 -126 51 -124 25 0 25 1 4 9 -12 5 -29 25 -38
44 -16 34 -16 37 4 71 13 23 16 35 8 35 -7 0 -20 -16 -29 -35z"/>
<path d="M4840 5522 c0 -4 7 -16 15 -26 17 -23 20 -82 5 -91 -6 -4 -8 -11 -4
-16 3 -6 12 -3 20 8 15 21 19 93 4 93 -5 0 -10 6 -10 14 0 8 -7 16 -15 20 -8
3 -15 2 -15 -2z"/>
<path d="M4932 5418 c2 -85 6 -112 17 -116 11 -4 13 3 8 31 -4 24 -1 39 8 47
12 10 12 15 -1 35 -16 24 -11 95 7 95 5 0 9 5 9 10 0 6 -11 10 -25 10 l-26 0
3 -112z"/>
<path d="M5351 5493 c0 -12 -5 -25 -11 -28 -5 -3 -10 -16 -10 -28 1 -20 2 -20
16 6 8 16 13 38 11 50 l-4 22 -2 -22z"/>
<path d="M5548 5463 c6 -2 18 -2 25 0 6 3 1 5 -13 5 -14 0 -19 -2 -12 -5z"/>
<path d="M7149 5416 c-3 -3 -124 -6 -269 -7 -146 -1 -275 -5 -287 -10 -23 -8
-23 -11 -22 -181 0 -95 4 -181 8 -192 16 -40 32 -41 430 -31 348 9 382 12 402
29 21 18 22 22 15 183 -4 90 -10 171 -13 179 -3 9 -17 20 -30 25 -24 9 -226
13 -234 5z m177 -34 c8 -4 13 -57 15 -149 3 -124 2 -145 -13 -163 -17 -19 -29
-20 -338 -20 l-320 0 -15 24 c-13 19 -15 50 -13 162 l3 139 260 5 c143 3 294
6 335 8 41 1 80 -2 86 -6z m75 -157 c5 -126 3 -165 -8 -182 -13 -23 -15 -23
-281 -24 -147 -1 -311 -4 -364 -8 -94 -6 -134 0 -150 24 -4 5 -8 85 -8 178 0
143 2 167 15 167 11 0 15 -10 14 -37 -3 -92 5 -260 14 -280 5 -12 20 -24 33
-27 14 -4 169 -4 347 0 262 5 325 9 337 20 12 12 15 43 12 175 -2 148 -1 160
15 157 16 -3 19 -21 24 -163z"/>
<path d="M6857 5283 c-4 -3 -7 -39 -7 -80 0 -60 3 -73 16 -73 11 0 14 8 12 27
-4 37 18 40 37 4 16 -32 35 -41 35 -18 0 7 -7 22 -15 34 -13 18 -13 22 0 33
20 17 19 36 -5 60 -19 19 -60 27 -73 13z m63 -49 c0 -8 -10 -14 -25 -14 -26 0
-35 25 -12 33 18 6 37 -3 37 -19z"/>
<path d="M7046 5277 c-23 -17 -18 -70 7 -75 15 -3 17 1 11 22 -7 29 19 47 38
28 9 -9 3 -23 -20 -56 -41 -57 -40 -66 6 -61 20 2 40 4 45 4 16 2 6 19 -15 24
-20 6 -20 7 -4 29 27 38 29 47 12 73 -18 28 -52 33 -80 12z"/>
<path d="M4828 5373 c7 -3 16 -2 19 1 4 3 -2 6 -13 5 -11 0 -14 -3 -6 -6z"/>
<path d="M3289 5363 c-118 -3 -170 -7 -177 -16 -6 -7 -11 -70 -12 -147 -1
-189 3 -220 31 -243 23 -19 37 -19 404 -13 368 7 381 8 403 28 21 21 22 29 22
180 0 123 -3 166 -15 188 l-16 30 -237 -2 c-130 -1 -312 -4 -403 -5z m582 -54
c4 -13 7 -81 8 -151 1 -117 -1 -128 -19 -138 -12 -6 -145 -13 -337 -17 -345
-7 -339 -7 -345 48 -3 21 2 25 37 30 l40 6 -42 2 -43 1 0 115 c0 84 3 117 13
120 6 2 149 6 317 10 167 3 306 8 308 10 11 11 57 -15 63 -36z m50 28 c13 -10
16 -39 18 -174 l2 -162 -26 -17 c-23 -15 -68 -18 -384 -22 -262 -3 -364 -1
-380 8 -18 9 -22 20 -23 63 -3 271 -3 290 10 295 10 3 12 -28 11 -144 -1 -131
1 -150 19 -173 l19 -26 330 0 c298 0 331 2 356 18 l27 17 0 150 c0 90 -4 151
-10 155 -11 7 -4 25 8 25 4 0 14 -6 23 -13z"/>
<path d="M3377 5233 c-4 -3 -7 -37 -7 -75 l0 -68 40 0 c42 0 56 16 18 22 -20
3 -23 10 -26 58 -3 54 -12 77 -25 63z"/>
<path d="M3542 5228 c-14 -14 -15 -47 -3 -67 13 -20 32 -3 25 24 -6 25 12 43
28 27 15 -15 3 -54 -27 -86 -14 -15 -25 -29 -25 -32 0 -2 20 -4 45 -4 25 0 45
5 45 10 0 6 -7 10 -15 10 -8 0 -15 6 -15 14 0 7 7 19 15 26 15 13 20 47 9 74
-7 19 -64 22 -82 4z"/>
<path d="M8117 5283 c-11 -10 -8 -201 2 -207 22 -14 41 7 39 40 -4 58 14 59
56 4 21 -28 42 -50 47 -50 21 0 21 32 0 54 -25 26 -26 42 -6 62 8 9 15 28 15
44 0 22 -7 33 -30 45 -29 15 -111 21 -123 8z m101 -60 c4 -28 -34 -42 -55 -20
-23 23 -9 49 24 45 20 -2 29 -9 31 -25z"/>
<path d="M8332 5274 c-40 -28 -25 -104 20 -104 21 0 23 13 6 39 -9 15 -9 23 1
35 21 25 60 20 73 -8 10 -23 6 -30 -43 -81 -30 -31 -56 -61 -57 -66 -3 -6 24
-9 69 -7 79 3 109 24 42 30 l-38 3 38 41 c45 51 50 93 12 118 -31 20 -94 21
-123 0z"/>
<path d="M8622 5210 c3 -58 9 -85 22 -99 40 -45 134 -33 161 19 20 39 19 43
-11 79 -23 28 -32 31 -80 31 -51 0 -54 1 -54 25 0 19 -5 25 -21 25 -20 0 -21
-4 -17 -80z m122 -6 c9 -4 21 -15 27 -25 23 -44 -44 -87 -82 -53 -45 41 -3
100 55 78z"/>
<path d="M9191 5261 c-16 -22 -26 -27 -46 -23 -14 2 -30 13 -36 23 -14 27 -35
23 -52 -9 -12 -24 -12 -32 0 -47 7 -11 13 -35 13 -55 0 -43 14 -60 52 -60 33
0 39 25 8 33 -16 4 -20 14 -20 45 0 37 3 41 30 47 41 9 50 0 50 -48 0 -23 7
-50 14 -59 17 -23 76 -25 76 -3 0 8 -9 15 -20 15 -38 0 -41 78 -2 95 27 12 29
25 2 25 -13 0 -24 10 -30 25 -12 31 -14 31 -39 -4z"/>
<path d="M9617 5254 c-3 -3 -23 -7 -44 -7 l-38 -2 0 -75 c0 -68 2 -75 20 -75
17 0 21 8 25 60 5 59 6 60 35 60 29 0 30 -1 35 -60 4 -52 8 -60 25 -60 17 0
20 8 23 56 2 42 -1 61 -15 76 -19 23 -55 37 -66 27z"/>
<path d="M9343 5240 c-51 -21 -59 -97 -14 -129 44 -31 101 -28 140 8 37 35 39
60 8 96 -25 30 -94 43 -134 25z m97 -40 c27 -27 25 -46 -5 -66 -19 -13 -33
-15 -57 -8 -44 13 -56 36 -35 68 21 32 68 35 97 6z"/>
<path d="M8857 5233 c-10 -10 -8 -88 3 -117 9 -25 13 -26 84 -26 l75 0 -3 53
c-2 28 -4 62 -5 75 -1 15 -7 22 -21 22 -18 0 -20 -7 -20 -59 0 -54 -2 -59 -24
-63 -37 -7 -50 6 -51 54 -1 24 -3 49 -3 56 -2 13 -24 16 -35 5z"/>
<path d="M7818 5223 c46 -2 118 -2 160 0 42 1 5 3 -83 3 -88 0 -123 -2 -77 -3z"/>
<path d="M853 5201 c-17 -11 -34 -29 -38 -41 -9 -27 19 -70 45 -70 23 0 25 12
8 39 -17 27 -3 51 30 51 30 0 52 -16 52 -36 0 -7 -25 -38 -55 -69 -30 -30 -55
-60 -55 -66 0 -6 28 -9 72 -7 62 3 73 6 76 22 3 16 0 18 -26 13 -44 -9 -46 2
-7 49 43 52 44 75 4 108 -36 31 -63 33 -106 7z"/>
<path d="M1137 5213 c-14 -13 -7 -148 8 -169 49 -70 175 -41 175 41 0 50 -40
78 -102 72 l-48 -4 0 33 c0 32 -16 45 -33 27z m124 -93 c21 -12 25 -50 7 -68
-7 -7 -26 -12 -43 -12 -52 0 -71 36 -38 72 18 20 45 23 74 8z"/>
<path d="M664 5197 c-3 -8 -4 -54 -2 -103 l3 -89 59 -3 c62 -3 94 11 66 29 -8
5 -24 7 -35 5 -11 -3 -27 -1 -35 4 -14 9 -16 22 -19 118 -1 39 -5 52 -16 52
-9 0 -18 -6 -21 -13z"/>
<path d="M1568 5175 c-22 -29 -22 -32 -3 -51 8 -8 14 -30 13 -49 -2 -43 16
-65 53 -65 35 0 38 21 7 35 -17 7 -24 20 -26 46 -3 32 0 37 23 43 48 12 65 -1
65 -47 0 -53 8 -65 48 -73 26 -5 32 -3 32 11 0 9 -9 19 -20 22 -30 8 -28 75 3
96 l22 16 -22 7 c-13 3 -23 13 -23 20 0 22 -37 16 -43 -6 -4 -15 -14 -20 -42
-20 -28 0 -38 5 -42 20 -7 27 -24 25 -45 -5z"/>
<path d="M2077 5171 c-21 -3 -38 -9 -37 -13 0 -5 0 -37 0 -73 0 -58 2 -65 20
-65 17 0 20 7 20 49 0 59 19 84 53 72 19 -7 22 -17 25 -65 3 -48 6 -57 20 -54
22 4 30 104 10 130 -16 20 -60 27 -111 19z"/>
<path d="M1838 5153 c-80 -50 -13 -157 87 -138 60 11 94 74 62 116 -31 41
-102 51 -149 22z m100 -29 c30 -21 25 -54 -10 -74 -25 -13 -31 -13 -55 0 -34
19 -40 45 -17 71 21 23 52 24 82 3z"/>
<path d="M1354 5138 c3 -13 6 -42 6 -65 0 -37 4 -44 31 -58 18 -10 38 -13 47
-9 10 4 31 8 47 8 l30 1 3 73 c3 69 2 72 -20 72 -21 0 -23 -4 -20 -48 4 -54
-11 -76 -50 -70 -21 3 -23 9 -26 61 -3 54 -4 57 -29 57 -21 0 -24 -3 -19 -22z"/>
<path d="M6940 4930 c-190 -3 -351 -9 -357 -13 -10 -6 -13 -55 -13 -186 0
-239 -19 -222 251 -222 112 1 287 4 388 7 166 6 185 9 202 27 20 22 26 77 8
77 -5 0 -7 4 -4 10 5 8 10 227 5 240 -1 3 -3 13 -5 24 -8 43 -3 43 -475 36z
m447 -25 c8 -3 12 -47 12 -155 1 -84 3 -155 5 -158 7 -13 -13 -52 -26 -52 -17
0 -24 235 -8 255 8 9 8 15 0 20 -5 3 -10 16 -10 29 0 45 -6 46 -344 45 -333
-1 -376 -5 -384 -28 -4 -11 0 -12 14 -5 11 4 166 10 345 12 267 3 328 1 337
-10 18 -22 18 -286 1 -303 -11 -10 -90 -14 -332 -18 -305 -6 -319 -5 -338 14
-17 17 -19 34 -19 155 0 98 -3 135 -12 132 -11 -4 -12 -104 -2 -235 5 -64 -7
-89 -25 -54 -17 31 -14 336 2 350 9 7 127 12 368 13 332 3 386 2 416 -7z"/>
<path d="M6858 4763 c-8 -36 4 -134 15 -130 7 2 11 11 9 20 -5 28 16 28 42 0
29 -31 45 -24 26 12 -10 18 -10 31 -3 47 6 14 7 32 2 46 -7 18 -16 22 -48 22
-29 0 -40 -5 -43 -17z m58 -18 c4 -8 0 -22 -7 -31 -12 -14 -14 -14 -20 3 -12
34 14 62 27 28z"/>
<path d="M7071 4756 l-22 -23 21 -6 c15 -4 20 -12 19 -29 -4 -42 1 -69 11 -63
12 8 13 132 1 139 -4 3 -18 -5 -30 -18z"/>
<path d="M3465 4893 c-330 -3 -341 -4 -353 -24 -9 -14 -13 -69 -13 -186 0
-159 1 -167 23 -191 l23 -25 370 7 c204 4 382 9 396 12 15 4 32 17 38 31 15
32 13 318 -1 349 -11 24 -50 35 -107 32 -20 -2 -189 -4 -376 -5z m459 -32 c13
-11 16 -39 16 -171 0 -144 -2 -158 -20 -175 -20 -18 -20 -17 -20 133 0 172 -7
198 -54 204 -17 1 -173 1 -347 -2 -247 -4 -320 -8 -332 -19 -13 -10 -17 -31
-17 -83 0 -51 -3 -69 -12 -66 -17 6 -23 140 -8 168 10 19 22 20 338 22 441 4
438 4 456 -11z m-54 -50 c5 -11 10 -78 10 -150 0 -121 -1 -131 -21 -145 -18
-12 -76 -15 -345 -16 -311 -1 -323 0 -333 19 -15 27 -14 151 0 151 8 0 8 4 0
14 -7 9 -11 38 -9 73 l3 58 90 6 c50 3 203 6 342 7 240 2 253 1 263 -17z
m-720 -226 c0 -50 -4 -85 -10 -85 -9 0 -12 18 -15 106 -1 16 -4 35 -8 41 -8
12 1 23 20 23 10 0 13 -21 13 -85z"/>
<path d="M3386 4731 c-9 -13 -5 -126 4 -141 9 -15 62 -9 67 7 2 6 -6 13 -19
15 -20 3 -23 9 -26 58 -3 55 -14 81 -26 61z"/>
<path d="M3578 4716 c-22 -17 -23 -32 -2 -44 12 -7 15 -18 11 -38 -6 -32 1
-56 14 -48 11 6 12 144 2 144 -5 0 -16 -7 -25 -14z"/>
<path d="M3218 4673 c7 -3 16 -2 19 1 4 3 -2 6 -13 5 -11 0 -14 -3 -6 -6z"/>
<path d="M8332 4763 c3 -100 4 -108 23 -108 19 0 20 7 20 105 0 102 -1 105
-23 108 -23 3 -23 3 -20 -105z"/>
<path d="M8530 4797 c0 -81 12 -107 62 -133 25 -13 35 -14 62 -3 51 20 66 38
66 81 0 32 -5 41 -32 58 -22 14 -47 19 -73 18 -37 -3 -40 -1 -43 25 -2 19 -9
27 -23 27 -17 0 -19 -7 -19 -73z m148 -41 c8 -18 7 -28 -4 -45 -34 -49 -116
-8 -92 45 9 19 19 24 48 24 29 0 39 -5 48 -24z"/>
<path d="M8128 4853 c-2 -5 -2 -52 0 -106 3 -86 6 -98 20 -95 14 3 17 17 19
78 0 41 1 81 2 88 1 17 46 15 61 -3 10 -13 10 -19 -5 -35 -9 -10 -22 -18 -29
-17 -21 4 -11 -19 30 -67 30 -35 47 -47 59 -43 15 6 15 9 -2 37 -9 16 -21 30
-25 30 -14 0 -9 20 13 49 17 23 18 31 8 53 -6 15 -21 29 -33 32 -31 8 -114 7
-118 -1z"/>
<path d="M8973 4831 c-16 -21 -19 -31 -10 -40 6 -6 14 -32 17 -58 4 -40 10
-50 33 -61 16 -8 36 -11 45 -7 15 6 13 10 -10 29 -21 16 -28 31 -28 58 0 33 3
36 33 41 17 2 35 3 40 0 4 -2 7 -26 7 -53 0 -45 3 -51 29 -65 28 -14 61 -12
61 4 0 4 -11 13 -25 19 -20 9 -25 19 -25 47 0 29 5 37 26 45 28 11 24 30 -7
30 -10 0 -19 6 -19 14 0 26 -18 27 -42 2 -27 -29 -73 -26 -81 5 -7 27 -20 24
-44 -10z"/>
<path d="M9487 4823 l-48 -4 3 -72 c2 -59 6 -72 21 -75 14 -3 17 5 17 51 0 62
16 83 55 73 23 -6 25 -11 25 -67 0 -57 1 -60 23 -57 20 3 22 8 21 60 -1 61
-22 100 -53 96 -9 -1 -38 -3 -64 -5z"/>
<path d="M8767 4813 c-9 -14 -6 -118 3 -133 7 -11 28 -15 76 -15 78 0 85 7 78
85 -6 61 -10 70 -30 70 -10 0 -14 -14 -14 -53 0 -58 -12 -77 -47 -77 -24 0
-25 3 -27 85 -1 28 -6 41 -18 43 -9 2 -18 -1 -21 -5z"/>
<path d="M9232 4802 c-15 -12 -23 -29 -24 -54 -2 -52 30 -77 98 -78 43 0 54 4
78 29 54 57 11 121 -81 121 -30 0 -57 -7 -71 -18z m112 -23 c30 -24 32 -36 9
-61 -22 -25 -75 -23 -99 3 -21 24 -12 46 27 66 31 17 32 16 63 -8z"/>
<path d="M7608 4803 c84 -2 219 -2 300 0 81 1 12 3 -153 3 -165 0 -231 -2
-147 -3z"/>
<path d="M669 4748 c-3 -34 3 -183 7 -190 7 -11 96 -10 113 1 24 16 2 32 -35
25 -25 -5 -34 -3 -36 7 0 8 -2 19 -3 24 -2 6 -3 40 -4 78 -1 60 -3 67 -21 67
-11 0 -20 -6 -21 -12z"/>
<path d="M885 4730 c-42 -29 -45 -46 -8 -42 21 3 22 -1 25 -65 2 -52 6 -68 18
-68 12 0 15 18 17 97 1 54 -2 100 -5 102 -4 2 -25 -9 -47 -24z"/>
<path d="M1139 4748 c0 -7 0 -42 1 -78 2 -85 23 -110 89 -110 84 1 123 62 75
119 -23 28 -32 31 -80 31 -53 0 -54 1 -48 25 5 21 3 25 -15 25 -12 0 -21 -6
-22 -12z m135 -84 c43 -43 -17 -94 -75 -64 -24 13 -25 56 -1 69 25 15 58 13
76 -5z"/>
<path d="M1580 4735 c-21 -22 -22 -29 -12 -45 7 -11 12 -38 12 -60 0 -31 5
-43 25 -56 27 -17 56 -16 63 3 2 7 -5 16 -15 20 -10 3 -21 11 -25 17 -14 20
-8 64 8 70 22 8 64 8 65 -1 1 -5 3 -27 4 -51 4 -49 26 -73 64 -69 33 3 38 25
8 32 -18 5 -27 16 -31 37 -9 45 -8 48 19 58 30 12 33 30 4 30 -12 0 -23 8 -26
20 -6 22 -33 28 -33 6 0 -40 -77 -45 -87 -6 -7 26 -15 25 -43 -5z"/>
<path d="M2081 4723 c-39 -4 -42 -6 -37 -26 3 -12 6 -46 6 -74 0 -46 3 -53 20
-53 18 0 20 7 20 60 0 56 2 60 26 66 35 9 43 -3 46 -65 3 -57 11 -69 34 -50
12 10 14 25 8 68 -3 31 -9 59 -13 62 -10 11 -62 16 -110 12z"/>
<path d="M1491 4711 c-9 -6 -11 -18 -7 -38 10 -45 -8 -83 -39 -83 -29 0 -38
16 -39 74 -1 34 -4 41 -21 41 -18 0 -20 -6 -18 -59 2 -32 8 -65 14 -72 14 -17
136 -17 141 0 4 9 3 114 -1 139 -1 9 -13 9 -30 -2z"/>
<path d="M1848 4704 c-54 -29 -47 -98 13 -128 42 -21 67 -20 106 4 55 33 56
92 4 123 -35 21 -87 21 -123 1z m103 -24 c22 -12 25 -39 5 -65 -15 -21 -69
-23 -92 -4 -17 14 -18 51 -2 67 15 15 63 16 89 2z"/>
<path d="M2947 4673 c18 -2 50 -2 70 0 21 2 7 4 -32 4 -38 0 -55 -2 -38 -4z"/>
<path d="M5020 4665 c0 -2 17 -12 38 -21 39 -18 182 -158 182 -180 0 -7 4 -14
8 -16 9 -4 62 -120 62 -137 0 -6 4 -19 9 -29 9 -18 22 -63 40 -147 17 -78 32
-313 25 -393 -8 -85 -8 -85 -124 -80 l-75 3 -6 135 c-16 338 -80 566 -187 660
-25 22 -54 40 -64 40 -14 0 -6 -11 31 -40 52 -41 88 -94 116 -170 9 -25 21
-54 25 -65 5 -11 11 -36 14 -55 3 -19 12 -78 21 -130 9 -52 17 -158 18 -235
l2 -140 -63 -3 c-67 -3 -502 24 -612 38 -160 20 -251 36 -285 50 -11 5 -33 13
-50 18 -29 8 -30 11 -37 88 -13 134 -38 224 -79 282 -20 27 -84 62 -116 62
-15 0 -28 10 -39 33 -54 103 -81 111 -334 104 -96 -3 -184 -7 -195 -9 -34 -7
-72 -38 -85 -69 -14 -32 -37 -49 -69 -49 -51 0 -122 -61 -155 -135 -20 -45
-35 -135 -35 -221 l-1 -92 -32 -11 c-108 -39 -186 -104 -257 -211 -20 -30 -38
-57 -41 -60 -8 -8 -25 -40 -74 -137 -70 -140 -120 -283 -161 -458 -8 -38 -20
-86 -25 -105 -5 -19 -11 -46 -13 -60 -3 -14 -17 -83 -31 -155 -15 -71 -31
-159 -36 -195 -6 -36 -15 -90 -20 -120 -10 -52 -15 -85 -39 -245 -16 -105 -41
-262 -53 -330 -24 -144 -30 -186 -35 -294 -5 -127 6 -186 58 -300 32 -69 79
-133 79 -107 0 8 -4 18 -10 21 -15 9 -75 143 -94 207 -18 63 -22 242 -7 311 5
23 15 76 22 117 6 41 28 140 49 220 21 80 48 186 60 235 13 50 27 98 31 107 5
10 9 25 9 35 0 9 4 30 9 47 5 17 14 49 20 71 5 22 22 85 36 140 15 55 30 116
35 135 5 19 18 67 29 105 12 39 21 81 21 93 0 38 17 16 23 -30 26 -193 46
-268 104 -388 72 -149 164 -262 292 -359 157 -119 396 -211 547 -211 25 0 54
-5 65 -11 13 -6 25 -7 32 -1 7 5 50 12 97 15 75 5 149 21 215 47 159 61 206
88 310 173 132 109 233 252 298 422 15 39 27 82 27 97 0 15 4 29 9 32 16 10
33 180 27 266 -9 135 -17 194 -27 205 -5 5 -9 18 -9 30 0 27 -33 112 -80 208
-39 78 -160 244 -186 254 -8 3 -14 11 -14 17 0 9 15 10 58 4 389 -55 1069 -63
1537 -18 111 10 192 20 320 40 130 20 145 21 145 13 -1 -4 -21 -28 -45 -53
-25 -25 -45 -50 -45 -57 0 -6 -4 -13 -8 -15 -27 -11 -126 -193 -151 -278 -7
-25 -17 -56 -21 -70 -35 -107 -45 -306 -21 -430 14 -77 51 -201 63 -214 4 -6
8 -16 8 -23 0 -8 16 -39 35 -69 19 -30 35 -57 35 -61 0 -13 87 -121 145 -178
79 -80 156 -136 258 -189 85 -44 249 -96 301 -96 16 0 57 -5 90 -11 67 -11
225 5 342 35 71 18 273 112 294 137 3 3 12 10 21 15 54 30 177 156 243 248 19
27 57 93 75 133 5 11 15 24 21 28 5 3 8 11 4 16 -3 5 -1 15 4 22 5 7 12 23 16
37 21 74 28 101 41 160 8 36 15 98 15 138 0 42 4 71 9 68 8 -5 38 -94 73 -216
6 -19 14 -42 18 -50 3 -8 15 -46 24 -85 10 -38 22 -79 26 -90 4 -11 13 -40 20
-65 7 -25 16 -56 20 -70 4 -14 13 -45 20 -70 7 -25 16 -54 20 -65 4 -11 15
-54 25 -95 9 -41 21 -84 25 -95 5 -11 11 -33 15 -50 3 -16 10 -46 15 -65 42
-162 50 -199 50 -227 0 -17 4 -34 9 -37 13 -9 24 -110 24 -226 0 -89 -4 -117
-27 -185 -15 -44 -34 -87 -42 -96 -8 -8 -14 -19 -14 -23 0 -11 -54 -88 -87
-122 -80 -86 -253 -194 -308 -194 -12 0 -27 -6 -33 -12 -16 -16 -301 -17 -334
-1 -13 6 -48 20 -78 32 -83 32 -210 121 -216 151 -11 51 -22 67 -53 73 -17 4
-34 15 -38 24 -4 10 -9 20 -13 23 -6 5 -143 174 -190 235 -14 18 -64 84 -112
147 -47 63 -93 120 -102 127 -9 8 -16 20 -16 27 0 8 -4 14 -9 14 -5 0 -48 48
-95 108 -48 59 -103 127 -124 151 -20 24 -41 51 -46 59 -13 22 -146 153 -196
194 -42 33 -51 36 -135 42 -49 4 -128 10 -175 15 -176 19 -420 33 -575 32
-225 -1 -604 -26 -785 -51 -41 -5 -116 -14 -167 -19 -88 -10 -143 -30 -143
-54 0 -5 -12 -22 -27 -36 -16 -15 -50 -55 -78 -90 -27 -35 -68 -85 -90 -111
-22 -26 -51 -62 -65 -80 -14 -18 -30 -38 -37 -45 -6 -7 -34 -42 -62 -79 -53
-69 -54 -71 -99 -126 -15 -19 -39 -51 -52 -70 -13 -19 -27 -37 -30 -40 -24
-22 -159 -196 -224 -289 -22 -31 -42 -58 -45 -61 -3 -3 -28 -34 -56 -70 -55
-73 -154 -180 -166 -180 -4 0 -28 -13 -52 -30 -109 -73 -230 -104 -385 -97
-137 6 -175 15 -276 66 -97 49 -124 68 -193 141 -29 30 -53 48 -53 40 0 -28
104 -126 180 -169 72 -42 113 -61 130 -61 10 0 21 -4 24 -9 15 -24 283 -39
356 -21 215 56 346 151 494 360 22 30 48 61 58 68 10 7 18 17 18 22 0 8 142
202 167 228 7 7 13 17 13 21 0 4 8 16 18 27 16 18 107 126 125 149 4 6 33 44
65 85 31 42 69 89 85 105 15 16 27 33 27 37 0 4 17 26 38 50 20 24 51 62 67
83 58 76 108 125 126 125 10 0 21 5 24 10 3 6 20 10 37 10 18 0 57 4 87 10
165 29 425 40 936 42 375 1 821 -18 915 -38 27 -6 160 -140 160 -162 0 -7 7
-15 14 -18 8 -3 48 -47 88 -97 40 -51 83 -103 95 -117 13 -14 23 -28 23 -33 0
-4 12 -19 28 -33 15 -14 61 -70 102 -124 41 -54 139 -180 218 -279 78 -98 142
-183 142 -188 0 -4 -15 -8 -32 -8 l-33 0 1 -70 c1 -62 3 -70 20 -70 15 0 20 9
24 50 6 55 15 75 34 75 26 0 46 -36 46 -83 0 -49 7 -55 39 -35 15 9 24 7 52
-14 46 -35 171 -98 217 -110 153 -39 319 -33 447 16 105 41 164 79 246 157
134 130 205 294 203 474 -1 114 -13 235 -24 250 -4 6 -12 37 -18 70 -21 109
-82 419 -92 470 -6 28 -17 84 -25 125 -8 41 -19 90 -24 107 -6 21 -6 35 0 39
6 3 4 11 -4 17 -8 7 -18 32 -21 57 -4 25 -11 59 -16 75 -12 42 -24 92 -55 225
-14 63 -30 126 -34 140 -5 14 -14 45 -22 70 -7 25 -16 49 -21 55 -4 5 -8 21
-8 35 0 14 -4 30 -8 35 -5 6 -21 44 -36 85 -30 81 -41 106 -55 130 -5 8 -33
56 -62 105 -80 136 -173 226 -300 293 l-54 28 -7 94 c-4 52 -12 113 -18 135
-18 62 -61 146 -79 153 -9 3 -22 13 -28 23 -7 9 -25 19 -40 22 -16 4 -41 9
-58 13 -21 4 -35 16 -45 37 -8 18 -30 42 -49 54 -32 22 -44 23 -218 23 -173 0
-261 -10 -290 -32 -7 -6 -28 -34 -48 -64 -23 -34 -43 -54 -55 -54 -22 0 -70
-20 -87 -36 -22 -21 -67 -118 -75 -163 -5 -25 -11 -85 -15 -133 -6 -100 1 -93
-138 -128 -124 -32 -254 -55 -405 -70 -142 -15 -402 -31 -460 -28 l-54 3 -3
165 c-3 248 -39 424 -120 588 -40 82 -133 187 -196 221 -35 19 -67 27 -67 16z
m2236 -342 c42 -41 44 -57 7 -49 -152 32 -358 32 -463 1 -113 -34 -119 -32
-72 23 45 55 82 62 301 60 l193 -1 34 -34z m-3469 -21 c24 -13 68 -70 60 -78
-3 -3 -36 3 -74 13 -94 25 -351 25 -437 -1 -32 -9 -60 -15 -62 -13 -3 3 5 21
16 40 18 31 28 37 68 42 26 4 52 8 57 10 25 10 351 -1 372 -13z m3463 -51
c103 -30 136 -47 157 -79 47 -69 68 -147 79 -294 7 -78 4 -80 -68 -50 -24 11
-88 31 -144 45 -87 23 -121 27 -245 27 -161 0 -282 -24 -404 -79 -36 -16 -66
-27 -68 -23 -6 10 0 154 8 204 19 122 76 206 151 224 16 4 34 10 39 14 6 4 26
11 45 14 19 4 55 11 80 16 80 16 286 5 370 -19z m-3489 -34 c145 -38 189 -76
224 -192 22 -74 28 -123 26 -217 -1 -42 -20 -50 -57 -24 -11 8 -65 27 -120 42
-88 25 -116 28 -259 28 -136 1 -174 -2 -250 -22 -99 -25 -175 -51 -190 -64 -5
-4 -20 -8 -33 -8 l-24 0 6 88 c14 186 43 265 112 311 43 28 174 66 259 75 71
7 250 -3 306 -17z m3681 -9 c60 -42 107 -191 108 -340 0 -51 -2 -58 -20 -58
-17 0 -20 7 -20 43 0 44 -23 197 -35 232 -16 46 -51 108 -67 119 -10 6 -18 14
-18 18 0 14 21 8 52 -14z m-850 -58 c-24 -26 -54 -152 -57 -239 -3 -103 -3
-101 -30 -101 -24 0 -25 3 -25 57 0 66 16 159 38 222 19 54 84 125 90 99 2
-10 -5 -27 -16 -38z m-3432 21 c0 -5 -7 -17 -15 -25 -44 -43 -68 -140 -81
-318 -6 -77 -9 -88 -25 -88 -17 0 -19 9 -19 100 0 148 24 231 87 301 34 38 53
48 53 30z m839 -38 c41 -41 63 -99 80 -203 17 -101 14 -158 -7 -169 -29 -15
-38 0 -37 64 1 125 -38 280 -80 315 -8 7 -15 16 -15 21 0 19 24 7 59 -28z
m3276 -282 c91 -24 92 -24 200 -77 82 -41 165 -97 225 -155 53 -51 150 -163
150 -172 0 -5 13 -28 28 -51 51 -76 103 -206 124 -311 15 -76 21 -304 9 -352
-6 -24 -16 -64 -22 -90 -15 -66 -40 -135 -55 -153 -6 -8 -15 -26 -19 -40 -4
-14 -16 -37 -26 -52 -11 -14 -19 -29 -19 -33 0 -13 -109 -151 -152 -191 -45
-43 -162 -134 -172 -134 -3 0 -27 -13 -53 -28 -99 -58 -222 -94 -374 -111
-137 -15 -341 14 -456 64 -82 36 -145 71 -160 87 -9 10 -22 18 -30 18 -7 0
-28 12 -46 27 -50 42 -197 193 -197 203 0 5 -6 15 -13 22 -57 60 -126 218
-165 381 -15 60 -16 316 -1 371 6 22 15 59 21 81 5 22 14 48 19 57 5 10 9 22
9 28 0 33 117 235 164 284 12 11 32 35 46 51 109 130 364 264 560 294 104 16
312 6 405 -18z m-3499 -41 c207 -48 368 -138 502 -279 65 -67 152 -189 178
-248 7 -18 20 -48 28 -65 14 -32 43 -136 65 -231 14 -61 14 -224 0 -301 -23
-124 -77 -273 -136 -371 -135 -225 -385 -400 -651 -454 -63 -13 -307 -15 -348
-2 -16 5 -54 14 -84 20 -99 22 -225 78 -324 144 -70 47 -179 149 -221 207 -16
22 -45 60 -62 83 -18 23 -33 46 -33 50 0 5 -11 32 -24 60 -28 60 -57 148 -76
227 -20 82 -17 319 4 400 10 36 21 79 25 95 7 27 30 80 78 183 8 17 19 32 24
32 5 0 9 5 9 11 0 37 144 192 255 274 117 87 218 131 400 174 77 18 297 13
391 -9z m2734 -34 c0 -14 -68 -61 -77 -53 -2 2 4 18 14 36 19 32 63 44 63 17z
m1154 -21 c31 -19 84 -60 117 -92 83 -80 193 -249 182 -280 -3 -7 0 -13 6 -13
6 0 20 -21 32 -47 11 -27 24 -55 28 -63 4 -8 24 -69 45 -135 21 -66 42 -128
47 -137 5 -10 9 -31 9 -48 0 -16 4 -30 9 -30 5 0 11 -17 14 -37 3 -21 12 -65
20 -98 29 -118 59 -250 62 -279 2 -15 8 -33 14 -39 6 -6 11 -28 11 -49 0 -20
5 -48 11 -62 7 -14 8 -33 4 -43 -5 -14 -10 -8 -21 27 -8 25 -19 59 -24 76 -6
17 -10 42 -10 55 0 14 -4 29 -8 34 -9 11 -17 36 -57 170 -15 50 -31 99 -35
110 -4 11 -15 47 -24 80 -9 33 -29 101 -45 150 -16 50 -34 110 -41 135 -27
100 -78 228 -100 255 -10 11 -35 47 -58 80 -57 85 -165 194 -244 245 -38 24
-68 50 -68 57 0 25 65 14 124 -22z m-1244 8 c0 -3 -11 -21 -25 -39 -14 -18
-25 -37 -25 -42 0 -21 -31 -27 -402 -82 -37 -6 -93 -10 -126 -10 -33 0 -81 -4
-108 -9 -84 -16 -720 -23 -949 -11 -406 22 -532 38 -554 70 -7 11 -26 35 -42
52 -15 18 -26 34 -24 36 1 2 27 -2 56 -8 443 -94 1272 -103 1859 -21 90 13
272 51 290 62 18 10 50 12 50 2z m-2294 -27 c8 -8 14 -17 14 -20 0 -3 12 -17
26 -31 41 -41 20 -41 -36 -1 -27 20 -56 36 -63 36 -13 1 21 30 36 30 4 0 15
-6 23 -14z m-1110 -16 l27 -11 -47 -32 c-75 -50 -144 -111 -193 -169 -66 -79
-73 -88 -73 -94 0 -3 -11 -20 -24 -37 -26 -34 -95 -186 -114 -252 -6 -22 -23
-89 -37 -150 -14 -60 -30 -118 -35 -127 -6 -10 -10 -25 -10 -33 0 -8 -15 -70
-34 -138 -19 -67 -36 -133 -39 -147 -3 -14 -11 -43 -17 -65 -12 -41 -23 -86
-39 -152 -21 -90 -63 -238 -68 -243 -14 -13 20 241 57 415 6 28 21 106 35 175
62 313 119 496 211 676 110 214 215 341 312 376 57 21 54 20 88 8z m2532
-1514 c6 -3 13 -3 16 2 3 5 20 6 38 4 18 -2 87 -7 153 -12 314 -22 500 -44
520 -60 29 -24 16 -33 -42 -26 -169 17 -434 26 -828 26 -511 1 -773 -12 -1012
-48 -56 -9 -60 -7 -40 19 9 12 51 20 157 33 80 9 179 21 220 26 41 6 118 12
170 14 52 3 95 6 95 7 0 1 86 7 190 13 208 12 345 13 363 2z"/>
<path d="M6983 4192 c-21 -3 -23 -9 -23 -73 0 -55 3 -69 15 -69 9 0 15 9 15
25 0 14 5 25 10 25 6 0 16 -11 22 -25 6 -14 20 -25 30 -25 16 0 17 3 8 20 -6
11 -15 20 -20 20 -5 0 -2 16 7 35 13 27 14 37 4 48 -14 18 -38 24 -68 19z m42
-32 c8 -13 -14 -42 -26 -34 -5 3 -9 14 -9 25 0 20 24 26 35 9z"/>
<path d="M6700 3670 c-13 -8 -15 -47 -15 -252 l0 -243 -228 -3 c-208 -2 -230
-4 -249 -21 -19 -19 -20 -26 -13 -280 5 -166 12 -266 19 -276 15 -20 170 -32
214 -17 25 9 32 8 37 -5 4 -13 8 -14 17 -5 8 8 50 12 115 12 l103 0 2 -197 c2
-233 2 -230 11 -239 10 -10 10 -8 7 226 -1 124 -6 210 -12 217 -7 9 -44 13
-119 13 l-109 0 0 31 c0 24 -3 30 -16 25 -9 -3 -21 -6 -27 -7 -7 0 -1 -4 11
-10 13 -5 22 -15 20 -21 -5 -14 -141 -26 -210 -19 l-38 3 -1 132 c0 72 -3 190
-5 263 -5 124 -4 132 15 142 12 7 103 11 237 11 174 0 221 3 233 14 14 13 15
40 7 240 -6 176 -6 229 4 241 11 13 56 15 291 15 154 0 279 -3 280 -7 1 -5 3
-66 5 -137 2 -92 0 -134 -9 -144 -9 -12 -9 -16 1 -19 8 -3 12 -30 12 -88 0
-55 4 -86 12 -91 7 -4 116 -7 243 -5 183 2 234 0 242 -11 12 -16 27 -524 16
-531 -8 -5 -164 -13 -396 -22 -54 -1 -101 -6 -104 -9 -4 -3 -7 -32 -7 -63 l-1
-58 -35 -2 c-19 -1 -57 -2 -84 -2 -78 -2 -47 -11 38 -12 49 -1 79 -5 81 -12 2
-7 6 -80 7 -163 l3 -152 -271 -7 c-150 -4 -281 -4 -293 0 -16 5 -21 2 -21 -11
0 -16 16 -17 218 -11 119 4 252 7 294 7 67 0 77 2 83 20 3 10 7 117 8 237 l2
218 241 6 c132 3 246 9 253 13 9 6 12 48 10 157 -1 82 1 152 4 156 4 3 3 13
-2 22 -4 9 -9 63 -10 121 -1 58 -7 111 -13 118 -9 10 -63 13 -250 11 -131 -1
-240 0 -242 2 -9 11 -14 159 -6 164 6 4 8 11 4 17 -6 10 -9 58 -12 221 l-2 87
-292 0 c-168 0 -299 -4 -308 -10z"/>
<path d="M7050 3600 c0 -5 7 -10 15 -10 8 0 15 5 15 10 0 6 -7 10 -15 10 -8 0
-15 -4 -15 -10z"/>
<path d="M7105 3580 c3 -5 8 -10 11 -10 2 0 4 5 4 10 0 6 -5 10 -11 10 -5 0
-7 -4 -4 -10z"/>
<path d="M6953 3522 c-13 -26 -29 -58 -37 -72 -39 -66 -86 -152 -86 -156 0 -2
74 -4 165 -4 137 0 165 2 165 14 0 8 -4 18 -10 21 -17 10 -11 25 13 35 20 8
19 9 -10 9 -29 1 -37 8 -70 62 -49 79 -93 139 -101 139 -4 0 -17 -22 -29 -48z
m89 -60 c4 -2 8 -8 8 -14 0 -5 10 -23 21 -40 18 -25 19 -32 8 -39 -11 -7 -11
-9 3 -9 9 0 24 -7 33 -16 13 -14 14 -19 3 -25 -15 -10 -248 -12 -248 -3 0 3
21 45 47 92 25 48 51 97 57 108 10 21 11 21 35 -15 14 -20 28 -37 33 -39z"/>
<path d="M6781 3464 c0 -11 3 -14 6 -6 3 7 2 16 -1 19 -3 4 -6 -2 -5 -13z"/>
<path d="M7221 3404 c0 -11 3 -14 6 -6 3 7 2 16 -1 19 -3 4 -6 -2 -5 -13z"/>
<path d="M6762 3360 c0 -14 2 -19 5 -12 2 6 2 18 0 25 -3 6 -5 1 -5 -13z"/>
<path d="M7216 3373 c-11 -11 -6 -23 8 -23 8 0 17 4 20 9 7 10 -19 23 -28 14z"/>
<path d="M7368 3363 c7 -3 16 -2 19 1 4 3 -2 6 -13 5 -11 0 -14 -3 -6 -6z"/>
<path d="M7045 3160 c-3 -5 1 -10 9 -10 8 0 18 5 21 10 3 6 -1 10 -9 10 -8 0
-18 -4 -21 -10z"/>
<path d="M7488 3103 c23 -2 59 -2 80 0 20 2 1 4 -43 4 -44 0 -61 -2 -37 -4z"/>
<path d="M6428 3083 c7 -3 16 -2 19 1 4 3 -2 6 -13 5 -11 0 -14 -3 -6 -6z"/>
<path d="M6558 3083 c6 -2 18 -2 25 0 6 3 1 5 -13 5 -14 0 -19 -2 -12 -5z"/>
<path d="M6610 3066 c0 -2 7 -7 16 -10 8 -3 12 -2 9 4 -6 10 -25 14 -25 6z"/>
<path d="M7438 3017 c-21 -12 -38 -28 -38 -34 0 -7 -3 -13 -7 -13 -25 0 -45
-112 -23 -125 6 -3 10 -14 10 -23 1 -19 36 -61 68 -79 32 -19 128 -16 158 3
34 23 65 69 74 110 12 50 -7 52 -22 2 -15 -51 -35 -81 -65 -96 -29 -16 -124
-15 -144 1 -30 23 -69 90 -69 119 0 91 106 162 193 129 35 -13 77 -58 77 -81
0 -13 7 -20 20 -20 26 0 25 2 -7 51 -50 76 -150 101 -225 56z"/>
<path d="M7710 3005 c0 -8 4 -15 10 -15 5 0 7 7 4 15 -4 8 -8 15 -10 15 -2 0
-4 -7 -4 -15z"/>
<path d="M6470 3003 l-105 -4 3 -127 c2 -70 7 -131 11 -135 7 -7 130 -9 226
-4 l30 2 0 120 c1 133 -5 156 -38 153 -12 -1 -69 -4 -127 -5z m145 -118 c3
-55 2 -108 -1 -117 -5 -16 -19 -18 -114 -18 l-108 0 -4 108 c-2 59 -2 113 0
120 3 9 32 12 114 10 l109 -3 4 -100z"/>
<path d="M7311 2974 c0 -11 3 -14 6 -6 3 7 2 16 -1 19 -3 4 -6 -2 -5 -13z"/>
<path d="M7733 2952 c1 -19 5 -36 9 -38 4 -3 9 -22 10 -42 1 -36 1 -36 7 8 4
29 2 49 -6 55 -6 6 -13 19 -16 30 -3 11 -4 5 -4 -13z"/>
<path d="M7293 2885 c0 -27 2 -38 4 -22 2 15 2 37 0 50 -2 12 -4 0 -4 -28z"/>
<path d="M6723 2870 c0 -25 2 -35 4 -22 2 12 2 32 0 45 -2 12 -4 2 -4 -23z"/>
<path d="M6271 2874 c0 -11 3 -14 6 -6 3 7 2 16 -1 19 -3 4 -6 -2 -5 -13z"/>
<path d="M7732 2800 c0 -14 2 -19 5 -12 2 6 2 18 0 25 -3 6 -5 1 -5 -13z"/>
<path d="M7311 2794 c0 -11 3 -14 6 -6 3 7 2 16 -1 19 -3 4 -6 -2 -5 -13z"/>
<path d="M7628 2683 c7 -3 16 -2 19 1 4 3 -2 6 -13 5 -11 0 -14 -3 -6 -6z"/>
<path d="M6398 2663 c7 -3 16 -2 19 1 4 3 -2 6 -13 5 -11 0 -14 -3 -6 -6z"/>
<path d="M7448 2663 c7 -3 16 -2 19 1 4 3 -2 6 -13 5 -11 0 -14 -3 -6 -6z"/>
<path d="M7578 2663 c6 -2 18 -2 25 0 6 3 1 5 -13 5 -14 0 -19 -2 -12 -5z"/>
<path d="M6548 2643 c7 -3 16 -2 19 1 4 3 -2 6 -13 5 -11 0 -14 -3 -6 -6z"/>
<path d="M7069 2480 c-24 -27 -48 -50 -53 -50 -5 0 -31 20 -57 45 -67 63 -85
56 -21 -8 29 -29 52 -57 52 -62 0 -6 -20 -27 -45 -48 -43 -37 -56 -57 -36 -57
4 0 29 20 53 45 25 25 48 45 50 45 3 0 29 -22 58 -50 50 -47 70 -59 70 -42 0
4 -25 31 -57 59 l-58 53 45 43 c65 62 76 77 57 77 -8 0 -34 -22 -58 -50z"/>
<path d="M7393 2463 c32 -2 81 -2 110 0 29 2 3 3 -58 3 -60 0 -84 -1 -52 -3z"/>
<path d="M6783 2410 c0 -25 2 -35 4 -22 2 12 2 32 0 45 -2 12 -4 2 -4 -23z"/>
<path d="M7222 2330 c0 -14 2 -19 5 -12 2 6 2 18 0 25 -3 6 -5 1 -5 -13z"/>
<path d="M7070 2190 c0 -5 5 -10 10 -10 6 0 10 5 10 10 0 6 -4 10 -10 10 -5 0
-10 -4 -10 -10z"/>
<path d="M7008 2173 c7 -3 16 -2 19 1 4 3 -2 6 -13 5 -11 0 -14 -3 -6 -6z"/>
<path d="M3450 3640 c-96 -3 -181 -9 -188 -14 -11 -6 -12 -54 -7 -242 5 -224
5 -233 -14 -244 -12 -6 -104 -10 -235 -10 -277 0 -258 14 -251 -188 14 -391
14 -386 43 -400 28 -13 163 -14 341 -3 78 4 108 3 117 -6 9 -9 13 -63 14 -185
3 -228 5 -267 17 -279 7 -7 99 -10 259 -9 285 2 320 3 330 13 4 4 6 106 5 228
-2 159 1 224 10 235 9 11 55 14 247 14 206 0 236 2 247 16 15 21 9 515 -7 557
l-11 28 -238 -3 c-150 -2 -242 1 -248 7 -6 6 -11 104 -12 238 -3 217 -4 229
-23 243 -22 15 -51 15 -396 4z m393 -75 c2 -33 5 -141 6 -240 1 -121 6 -184
14 -194 10 -12 49 -13 248 -7 191 6 238 5 247 -6 7 -9 13 -108 17 -281 l6
-267 -241 0 c-149 0 -249 -4 -261 -10 -19 -10 -19 -22 -19 -237 1 -124 -2
-228 -5 -232 -4 -3 -129 -7 -280 -9 l-273 -3 -4 32 c-3 17 -6 120 -7 228 -2
132 -6 200 -14 210 -10 12 -49 13 -234 7 -154 -5 -229 -4 -243 4 -19 10 -20
20 -20 238 0 125 -4 241 -9 258 -14 50 2 54 243 54 121 0 226 4 241 10 l27 10
-2 233 c-2 127 -2 239 -1 247 1 13 39 15 280 15 l279 0 5 -60z"/>
<path d="M3508 3514 c-72 -68 -67 -74 57 -74 126 0 130 7 51 74 -29 25 -55 46
-57 46 -2 0 -25 -21 -51 -46z m104 -29 c4 -5 4 -13 2 -17 -7 -11 -114 -10
-114 1 0 4 14 20 32 34 30 26 32 26 52 9 12 -9 24 -21 28 -27z"/>
<path d="M3510 3380 l-135 -5 -3 -146 -3 -146 63 -49 c34 -27 80 -61 102 -76
l40 -26 30 21 c17 12 38 29 47 37 9 8 37 34 62 57 l45 41 1 134 c1 73 -2 138
-7 145 -10 16 -82 20 -242 13z m222 -34 c4 -6 8 -63 8 -127 l0 -116 -47 -44
c-65 -60 -113 -99 -122 -99 -9 0 -162 119 -173 135 -4 5 -8 65 -8 131 0 90 3
123 13 127 7 3 69 5 137 6 68 1 126 3 127 5 7 7 58 -8 65 -18z"/>
<path d="M3430 3313 c0 -14 2 -15 9 -5 6 10 38 13 124 11 65 -1 118 -5 118 -8
1 -3 2 -46 3 -96 2 -85 1 -90 -26 -118 -40 -43 -35 -57 7 -17 l35 34 0 108 0
108 -135 0 c-122 0 -135 -2 -135 -17z"/>
<path d="M3432 3245 c0 -16 2 -22 5 -12 2 9 2 23 0 30 -3 6 -5 -1 -5 -18z"/>
<path d="M3429 3180 c-11 -27 -1 -71 19 -88 76 -64 121 -94 133 -86 6 3 -8 17
-31 30 -78 44 -105 73 -110 118 -3 25 -8 35 -11 26z"/>
<path d="M3600 3040 c-13 -8 -12 -10 3 -10 9 0 17 5 17 10 0 12 -1 12 -20 0z"/>
<path d="M3071 3013 c-6 -16 -9 -50 -7 -78 3 -27 6 -100 7 -162 1 -62 5 -117
9 -123 4 -7 55 -10 145 -8 l139 3 49 60 c27 33 60 77 74 98 34 50 31 56 -91
193 l-39 44 -137 0 -138 0 -11 -27z m334 -63 c33 -38 63 -70 67 -70 10 0 10
-67 0 -72 -4 -1 -34 -36 -65 -75 l-58 -73 -123 0 c-121 0 -124 0 -130 23 -8
33 -9 314 -1 327 4 6 55 10 128 10 l123 0 59 -70z"/>
<path d="M3170 2980 l-45 -5 -1 -70 c-1 -66 0 -66 3 -10 2 33 10 63 16 67 7 4
48 8 93 8 88 0 87 1 166 -89 35 -39 33 -42 -61 -145 -22 -24 -29 -26 -118 -26
-57 0 -92 -4 -88 -9 7 -13 140 -12 182 0 21 7 46 30 77 72 25 34 46 67 46 72
0 22 -103 135 -124 136 -56 4 -105 4 -146 -1z"/>
<path d="M3751 3008 c-17 -17 -31 -38 -31 -45 0 -7 -4 -13 -10 -13 -5 0 -10
-5 -10 -11 0 -5 -13 -24 -30 -42 -50 -53 -43 -72 81 -210 l35 -39 85 -1 c46 0
112 1 147 2 l62 1 -2 193 -3 192 -146 3 -146 3 -32 -33z m309 -143 c3 -83 2
-160 -2 -172 -7 -22 -12 -23 -137 -23 l-129 0 -25 33 c-14 17 -43 52 -66 77
-22 25 -41 50 -41 55 0 10 40 68 105 152 25 32 26 32 123 35 53 2 113 1 132
-2 l35 -5 5 -150z"/>
<path d="M3779 2952 c-13 -20 -27 -38 -31 -40 -4 -2 -8 -10 -8 -17 0 -7 -6
-15 -12 -18 -7 -2 -10 -8 -6 -12 9 -9 47 34 48 53 0 6 5 12 10 12 6 0 10 6 10
14 0 16 21 26 57 26 33 0 27 5 -14 13 -29 6 -34 3 -54 -31z"/>
<path d="M3898 2983 c6 -2 18 -2 25 0 6 3 1 5 -13 5 -14 0 -19 -2 -12 -5z"/>
<path d="M4008 2865 c3 -93 0 -130 -9 -142 -11 -13 -11 -15 6 -12 18 4 20 14
23 124 2 86 -1 125 -10 138 -11 14 -12 -4 -10 -108z"/>
<path d="M3700 2840 c0 -5 5 -10 10 -10 6 0 10 -6 10 -13 0 -14 80 -97 94 -97
4 0 -15 26 -43 57 -28 31 -51 61 -51 65 0 4 -4 8 -10 8 -5 0 -10 -4 -10 -10z"/>
<path d="M3838 2708 c9 -9 15 -9 24 0 9 9 7 12 -12 12 -19 0 -21 -3 -12 -12z"/>
<path d="M4160 2856 c0 -128 9 -136 71 -63 24 28 44 54 44 58 0 11 -93 109
-105 109 -6 0 -10 -38 -10 -104z m89 -2 c1 -12 -57 -70 -63 -63 -4 4 -10 105
-7 122 1 12 69 -45 70 -59z"/>
<path d="M2908 2898 c-27 -28 -48 -55 -48 -60 0 -10 102 -108 113 -108 12 0 4
213 -8 216 -5 2 -31 -20 -57 -48z m45 -12 c3 -8 3 -23 0 -34 -2 -11 0 -29 7
-41 18 -34 -16 -40 -46 -8 -30 32 -30 40 -1 71 26 29 33 31 40 12z"/>
<path d="M3534 2732 c-10 -9 -39 -33 -64 -52 -89 -70 -85 -58 -84 -217 0 -79
4 -146 7 -150 9 -8 367 -6 376 3 3 3 6 68 6 144 0 153 3 146 -75 200 -19 13
-53 39 -74 57 -45 37 -64 41 -92 15z m132 -72 c46 -39 84 -76 84 -83 1 -7 2
-64 3 -127 l2 -115 -172 -3 -173 -2 -1 42 c0 24 -3 77 -5 118 -1 41 -1 82 2
91 5 18 152 149 166 149 5 0 47 -32 94 -70z"/>
<path d="M3545 2661 c-46 -28 -105 -88 -105 -106 0 -9 5 -13 10 -10 6 3 10 12
10 19 0 7 19 28 43 46 23 19 44 38 45 42 9 21 61 -3 116 -54 11 -10 23 -18 28
-18 4 0 8 -34 8 -75 0 -43 4 -75 10 -75 6 0 10 30 10 70 0 65 -3 73 -27 96
-24 22 -110 84 -116 84 -1 0 -15 -8 -32 -19z"/>
<path d="M3451 2484 c0 -11 3 -14 6 -6 3 7 2 16 -1 19 -3 4 -6 -2 -5 -13z"/>
<path d="M3448 2440 c-4 -14 -6 -36 -5 -50 l2 -25 134 0 c81 0 136 4 138 10 2
6 -43 9 -126 7 l-130 -4 -3 44 c-3 36 -5 39 -10 18z"/>
<path d="M3700 2410 c0 -5 5 -10 10 -10 6 0 10 5 10 10 0 6 -4 10 -10 10 -5 0
-10 -4 -10 -10z"/>
<path d="M3523 2272 c-24 -2 -43 -7 -43 -12 0 -5 22 -32 50 -60 41 -41 53 -49
67 -41 25 14 108 99 103 104 -7 7 -130 13 -177 9z m118 -40 c-5 -9 -18 -26
-30 -36 -19 -18 -21 -17 -56 17 l-36 35 66 1 c60 1 65 -1 56 -17z"/>
<path d="M8765 3482 c-6 -4 -19 -23 -29 -43 -10 -19 -34 -53 -52 -73 -19 -21
-34 -43 -34 -50 1 -12 41 31 75 79 35 49 53 70 57 65 2 -3 22 -27 44 -55 21
-27 47 -59 57 -69 9 -11 17 -28 17 -39 0 -18 -8 -19 -137 -16 -100 2 -138 0
-141 -9 -3 -9 35 -12 152 -12 156 0 190 8 153 35 -10 7 -17 17 -17 22 0 5 -8
19 -17 30 -10 12 -38 48 -63 82 -47 64 -49 65 -65 53z"/>
<path d="M9065 3403 c7 -81 21 -108 62 -124 33 -12 79 0 108 29 32 32 32 53
-2 92 -24 30 -30 32 -74 28 -46 -5 -48 -4 -51 21 -2 19 -10 27 -27 29 l-24 4
8 -79z m139 -19 c26 -26 16 -61 -22 -75 -33 -13 -72 12 -72 46 0 41 63 61 94
29z"/>
<path d="M9510 3455 c-22 -23 -22 -25 -6 -59 9 -19 13 -41 10 -50 -10 -27 23
-66 56 -66 36 0 42 27 8 32 -25 3 -34 32 -23 75 5 21 11 24 43 21 33 -3 37 -6
35 -28 -5 -60 20 -100 63 -100 29 0 32 26 4 35 -16 5 -20 15 -20 47 0 31 4 41
20 45 11 3 20 12 20 19 0 8 -9 14 -20 14 -13 0 -20 7 -20 20 0 27 -16 25 -41
-4 -29 -33 -77 -33 -85 1 -8 29 -15 29 -44 -2z"/>
<path d="M4812 3440 c-27 -25 -27 -32 -4 -53 14 -13 98 -37 128 -37 2 0 4 -6
4 -14 0 -25 -57 -30 -100 -8 -41 20 -55 16 -44 -12 5 -13 22 -16 83 -16 82 0
101 9 101 47 0 25 -26 43 -63 43 -13 0 -38 5 -56 11 -25 9 -29 14 -20 25 15
18 70 18 95 -1 26 -20 44 -19 44 4 0 14 -10 20 -46 25 -75 10 -99 7 -122 -14z"/>
<path d="M5046 3435 c-37 -35 -36 -86 3 -114 44 -32 133 -29 166 4 33 32 33
75 -1 109 -23 22 -35 26 -84 26 -47 0 -62 -4 -84 -25z m127 -7 c9 -7 19 -27
23 -44 11 -57 -64 -91 -113 -51 -18 13 -16 73 3 91 19 19 64 21 87 4z"/>
<path d="M5530 3444 c0 -8 6 -14 14 -14 23 0 68 -67 64 -98 -3 -23 1 -27 22
-27 21 0 25 4 23 27 -1 18 10 39 38 69 21 23 39 46 39 51 0 4 -13 8 -29 8 -25
0 -30 -5 -33 -26 -4 -34 -34 -56 -48 -34 -5 8 -10 25 -10 36 0 18 -6 22 -40
22 -28 1 -40 -3 -40 -14z"/>
<path d="M5277 3444 c-3 -4 0 -12 8 -20 20 -20 13 -93 -10 -110 -17 -13 -15
-14 23 -14 40 0 54 11 32 25 -12 8 -8 67 5 72 6 2 32 -19 58 -46 59 -60 77
-58 77 8 0 25 3 56 6 69 5 18 2 22 -19 22 -24 0 -25 -2 -20 -40 3 -22 2 -40
-2 -40 -4 0 -27 18 -51 40 -41 37 -88 52 -107 34z"/>
<path d="M9313 3433 c-9 -3 -13 -26 -13 -68 0 -77 12 -87 98 -83 l57 3 3 66
c2 50 -1 69 -13 79 -23 19 -33 3 -37 -60 -3 -49 -6 -55 -27 -58 -33 -5 -45 11
-43 60 2 47 -6 67 -25 61z"/>
<path d="M9766 3411 c-38 -39 -33 -77 14 -109 66 -45 160 -7 160 64 0 46 -38
74 -99 74 -39 0 -52 -5 -75 -29z m118 -14 c25 -18 17 -58 -15 -76 -50 -28
-114 32 -79 75 15 18 70 18 94 1z"/>
<path d="M9979 3428 c-3 -54 5 -134 14 -140 17 -11 30 20 24 57 -7 42 11 68
44 63 21 -3 25 -9 29 -58 4 -47 8 -55 25 -55 17 0 20 8 23 48 2 32 -2 57 -13
73 -14 21 -23 24 -80 24 -45 0 -65 -4 -66 -12z"/>
<path d="M8475 3380 c-4 -6 7 -10 25 -10 18 0 29 4 25 10 -3 6 -15 10 -25 10
-10 0 -22 -4 -25 -10z"/>
<path d="M5276 3172 c-3 -3 -6 -44 -6 -91 l0 -86 -67 -26 c-50 -19 -69 -32
-71 -47 -4 -25 49 -45 103 -40 20 1 39 -2 43 -8 18 -27 64 -25 144 7 83 33
101 51 77 75 -16 15 -87 21 -136 10 l-31 -7 -4 76 c-2 43 0 82 4 88 13 22 28
-8 33 -68 7 -68 10 -73 32 -59 38 24 40 99 4 131 -22 19 -117 53 -125 45z m-6
-237 c0 -16 -62 -31 -81 -20 -8 5 -2 12 17 21 39 17 64 17 64 -1z m180 7 c0
-8 -96 -52 -113 -52 -5 0 -7 7 -5 16 5 25 118 59 118 36z"/>
<path d="M8710 3010 c0 -11 75 -9 86 3 4 4 -14 7 -39 7 -26 0 -47 -4 -47 -10z"/>
<path d="M8651 2981 c-23 -20 -33 -39 -36 -67 -2 -22 -2 -30 1 -20 11 36 54
96 69 96 8 0 15 5 15 10 0 17 -15 11 -49 -19z"/>
<path d="M8805 3000 c-3 -5 3 -10 15 -10 12 0 18 5 15 10 -3 6 -10 10 -15 10
-5 0 -12 -4 -15 -10z"/>
<path d="M9024 2995 c-4 -9 -4 -45 -2 -80 5 -84 28 -110 94 -109 80 2 119 66
75 124 -17 21 -27 24 -75 24 -55 -1 -56 -1 -56 27 0 31 -26 41 -36 14z m135
-86 c24 -26 14 -53 -24 -71 -51 -23 -101 45 -57 78 25 20 59 17 81 -7z"/>
<path d="M9461 2971 c-19 -26 -19 -30 -5 -42 11 -9 14 -23 11 -46 -7 -41 17
-73 57 -76 36 -3 46 20 13 32 -17 7 -26 19 -29 40 -5 37 0 46 30 54 40 10 52
-1 52 -48 0 -51 19 -75 61 -75 35 0 41 27 7 32 -19 2 -24 10 -26 46 -3 37 -1
42 17 42 27 0 28 30 1 37 -11 3 -20 12 -20 19 0 21 -28 17 -40 -6 -7 -13 -21
-20 -41 -20 -22 0 -32 5 -36 20 -8 28 -28 25 -52 -9z"/>
<path d="M8850 2973 c0 -5 7 -17 15 -27 19 -25 19 -45 0 -84 -28 -54 -121 -80
-171 -47 -14 9 -31 14 -37 12 -16 -5 39 -32 81 -40 68 -13 151 47 152 110 0
38 -16 83 -30 83 -5 0 -10 -3 -10 -7z"/>
<path d="M9729 2942 c-57 -51 -32 -118 48 -129 51 -7 109 19 117 52 21 84 -96
139 -165 77z m119 -25 c33 -26 -6 -77 -60 -77 -34 0 -60 34 -49 64 12 32 74
40 109 13z"/>
<path d="M9936 2962 c-3 -3 -6 -38 -6 -79 0 -66 2 -73 20 -73 17 0 20 7 20 48
0 58 17 85 51 80 22 -3 24 -9 29 -63 4 -44 9 -60 20 -60 11 0 16 14 18 57 4
86 -5 98 -83 97 -35 -1 -66 -4 -69 -7z"/>
<path d="M9250 2902 c0 -88 13 -98 118 -94 l42 2 0 76 c0 66 -2 75 -17 72 -13
-2 -19 -14 -21 -38 -5 -74 -10 -81 -45 -78 -32 3 -32 4 -35 61 -3 49 -6 57
-22 57 -18 0 -20 -7 -20 -58z"/>
<path d="M8620 2861 c0 -6 5 -13 10 -16 6 -3 10 1 10 9 0 9 -4 16 -10 16 -5 0
-10 -4 -10 -9z"/>
<path d="M5107 2813 c-9 -14 9 -63 23 -63 6 0 8 5 5 11 -4 6 -10 22 -14 37 -4
16 -10 22 -14 15z"/>
<path d="M5250 2805 c-10 -12 -10 -15 4 -15 9 0 16 7 16 15 0 8 -2 15 -4 15
-2 0 -9 -7 -16 -15z"/>
<path d="M5325 2810 c4 -6 11 -8 16 -5 14 9 11 15 -7 15 -8 0 -12 -5 -9 -10z"/>
<path d="M5420 2785 c0 -46 14 -46 17 0 1 19 -3 35 -8 35 -5 0 -9 -16 -9 -35z"/>
<path d="M5500 2804 c0 -8 5 -12 10 -9 6 3 10 10 10 16 0 5 -4 9 -10 9 -5 0
-10 -7 -10 -16z"/>
<path d="M5638 2813 c7 -3 16 -2 19 1 4 3 -2 6 -13 5 -11 0 -14 -3 -6 -6z"/>
<path d="M5380 2791 c-13 -26 -13 -41 3 -41 6 0 13 14 14 30 3 35 -2 38 -17
11z"/>
<path d="M5460 2779 c0 -18 3 -29 7 -25 11 11 13 45 3 51 -6 4 -10 -7 -10 -26z"/>
<path d="M5060 2789 c0 -5 5 -7 10 -4 6 3 10 8 10 11 0 2 -4 4 -10 4 -5 0 -10
-5 -10 -11z"/>
<path d="M5152 2788 c6 -18 28 -21 28 -4 0 9 -7 16 -16 16 -9 0 -14 -5 -12
-12z"/>
<path d="M5200 2793 c1 -5 7 -19 15 -33 10 -18 14 -20 15 -8 0 23 -11 48 -21
48 -5 0 -9 -3 -9 -7z"/>
<path d="M5530 2793 c0 -5 4 -15 10 -23 11 -18 25 -7 17 15 -6 15 -27 21 -27
8z"/>
<path d="M5286 2782 c-3 -6 -1 -14 5 -17 15 -10 25 3 12 16 -7 7 -13 7 -17 1z"/>
<path d="M5591 2774 c0 -11 3 -14 6 -6 3 7 2 16 -1 19 -3 4 -6 -2 -5 -13z"/>
<path d="M5490 2760 c0 -5 7 -10 16 -10 8 0 12 5 9 10 -3 6 -10 10 -16 10 -5
0 -9 -4 -9 -10z"/>
<path d="M5482 2514 l3 -99 40 3 c43 2 118 19 150 32 11 5 45 11 76 15 31 3
65 12 75 19 22 16 12 46 -15 46 -11 0 -30 4 -43 9 -13 5 -50 16 -83 25 -33 9
-73 21 -90 26 -16 5 -49 12 -73 16 l-43 7 3 -99z m110 55 c46 -11 91 -25 100
-30 10 -5 27 -9 37 -9 23 0 71 -20 71 -30 0 -3 -28 -12 -62 -19 -35 -7 -89
-19 -121 -27 -32 -8 -73 -14 -91 -14 l-32 0 2 73 c1 39 2 73 3 75 2 4 8 3 93
-19z"/>
<path d="M4779 2578 c-2 -52 2 -144 7 -160 5 -16 20 -18 133 -18 70 0 142 5
160 11 l31 11 0 77 c0 47 -5 82 -12 89 -8 8 -59 12 -165 12 -152 0 -153 0
-154 -22z m309 -68 c2 -52 0 -67 -14 -77 -23 -17 -260 -18 -270 -2 -5 9 -8 76
-5 132 1 16 13 17 144 15 l142 -3 3 -65z"/>
<path d="M8803 2556 c-18 -30 -48 -36 -82 -15 -35 21 -52 17 -86 -21 l-20 -22
30 -24 29 -23 -27 -29 c-30 -32 -30 -31 21 -73 18 -16 21 -15 48 7 36 29 40
29 71 4 33 -25 31 -26 73 10 l35 31 -27 20 c-35 26 -35 42 -3 57 33 15 32 24
-10 61 -41 35 -41 36 -52 17z m-83 -36 c29 -25 38 -25 67 2 19 18 27 20 48 10
32 -15 32 -29 -2 -57 -24 -21 -25 -25 -10 -39 8 -9 20 -16 26 -16 18 0 13 -25
-8 -45 -19 -16 -21 -16 -50 4 -30 21 -51 27 -51 13 0 -4 -14 -13 -31 -21 -28
-12 -33 -12 -51 6 -19 20 -19 20 11 46 l31 25 -31 27 -31 26 22 19 c29 25 32
25 60 0z"/>
<path d="M9023 2549 c-16 -16 -5 -140 16 -169 27 -38 97 -40 140 -5 34 29 39
59 16 92 -20 29 -78 48 -103 34 -24 -13 -32 -5 -32 31 0 29 -17 37 -37 17z
m135 -91 c16 -16 15 -53 -2 -67 -8 -7 -30 -11 -48 -9 -26 2 -35 9 -43 31 -8
24 -6 31 10 43 23 17 67 18 83 2z"/>
<path d="M9460 2523 c-18 -21 -21 -30 -11 -45 6 -10 11 -34 11 -53 0 -42 29
-75 65 -75 31 0 33 23 2 37 -34 16 -35 81 -2 89 47 12 60 2 65 -51 4 -42 9
-52 33 -63 28 -13 57 -10 57 5 0 5 -10 13 -22 18 -18 8 -24 20 -26 53 -3 37
-1 42 17 42 12 0 21 7 21 15 0 8 -9 15 -20 15 -11 0 -20 6 -20 14 0 25 -22 30
-39 8 -16 -21 -29 -25 -68 -23 -16 1 -23 7 -23 21 0 27 -12 25 -40 -7z"/>
<path d="M9249 2498 c-4 -39 4 -125 13 -136 7 -8 34 -12 80 -10 l69 2 -3 75
c-3 68 -5 76 -23 76 -17 0 -21 -8 -25 -60 -5 -59 -5 -60 -37 -63 -32 -3 -33
-2 -34 35 -1 21 -3 45 -4 53 -1 8 -3 21 -4 28 0 6 -8 12 -16 12 -8 0 -16 -6
-16 -12z"/>
<path d="M9716 2484 c-45 -45 -27 -102 39 -124 69 -23 135 14 135 75 0 47 -37
75 -100 75 -38 0 -53 -5 -74 -26z m115 -14 c27 -15 24 -56 -5 -75 -22 -14 -28
-15 -60 -1 -28 12 -36 21 -36 40 0 40 56 60 101 36z"/>
<path d="M9929 2505 c0 -3 -1 -35 -1 -72 -1 -61 1 -68 18 -68 16 0 19 8 22 50
3 46 19 75 43 75 22 0 39 -35 39 -81 0 -43 3 -50 18 -47 21 4 29 79 13 121
-10 26 -14 27 -81 27 -38 0 -70 -2 -71 -5z"/>
<path d="M8363 2483 c37 -2 97 -2 135 0 37 2 6 3 -68 3 -74 0 -105 -1 -67 -3z"/>
<path d="M5660 2334 c0 -48 -14 -55 -34 -19 -34 62 -34 62 -54 14 -21 -47 -20
-58 1 -41 9 8 24 7 52 -3 38 -13 40 -12 48 8 8 21 9 21 21 5 19 -27 24 -22 22
20 -2 46 -12 62 -37 62 -16 0 -19 -7 -19 -46z m40 4 c0 -5 -6 -8 -14 -8 -9 0
-12 7 -9 21 4 16 8 17 14 7 5 -7 9 -16 9 -20z"/>
<path d="M5735 2370 c3 -5 17 -10 30 -10 13 0 27 5 30 10 4 6 -8 10 -30 10
-22 0 -34 -4 -30 -10z"/>
<path d="M4745 2359 c-10 -15 -2 -19 24 -12 17 4 19 8 9 14 -18 12 -26 11 -33
-2z"/>
<path d="M4885 2361 c-3 -5 -1 -12 4 -15 13 -8 42 4 35 15 -7 12 -31 12 -39 0z"/>
<path d="M5042 2361 c-11 -7 -11 -9 2 -14 10 -4 17 -20 17 -39 l2 -33 4 30 c3
17 9 34 14 40 22 22 -9 36 -39 16z"/>
<path d="M5403 2352 c-3 -7 4 -20 16 -28 24 -18 28 -34 6 -34 -8 0 -15 -4 -15
-9 0 -4 10 -8 22 -7 29 1 37 35 13 53 -14 9 -15 16 -7 26 8 10 6 13 -10 13
-11 0 -23 -6 -25 -14z"/>
<path d="M5485 2361 c-3 -5 -1 -12 5 -16 5 -3 10 -21 11 -38 l1 -32 9 35 c4
19 6 41 4 48 -5 14 -21 16 -30 3z"/>
<path d="M4667 2349 c8 -8 16 -8 30 0 16 9 14 10 -11 11 -22 0 -27 -3 -19 -11z"/>
<path d="M4820 2325 c0 -19 0 -38 -1 -42 0 -4 4 -9 9 -11 5 -1 9 18 8 43 -1
52 -16 62 -16 10z"/>
<path d="M4961 2338 c-9 -25 -4 -49 13 -60 16 -11 36 -10 36 2 0 6 -6 10 -14
10 -34 0 -28 56 7 63 18 3 16 5 -6 6 -20 1 -30 -5 -36 -21z"/>
<path d="M4673 2315 c14 -10 17 -20 11 -37 -6 -21 -6 -22 12 -8 10 8 21 16 23
17 9 6 -33 43 -48 43 -14 -1 -13 -3 2 -15z"/>
<path d="M4740 2315 c0 -17 2 -18 24 -9 18 7 12 24 -10 24 -8 0 -14 -7 -14
-15z"/>
<path d="M4882 2304 c3 -28 38 -56 38 -30 0 8 -6 17 -12 20 -10 5 -10 7 0 12
15 7 6 24 -13 24 -10 0 -14 -9 -13 -26z"/>
<path d="M5760 2316 c0 -8 5 -18 10 -21 6 -3 10 1 10 9 0 8 -4 18 -10 21 -5 3
-10 -1 -10 -9z"/>
<path d="M4745 2280 c3 -5 13 -10 21 -10 8 0 12 5 9 10 -3 6 -13 10 -21 10 -8
0 -12 -4 -9 -10z"/>
<path d="M5554 1690 c0 -69 1 -97 3 -62 2 34 2 90 0 125 -2 34 -3 6 -3 -63z"/>
<path d="M8708 1772 l-77 -3 -3 -110 c-2 -61 -1 -113 1 -115 2 -2 64 -4 138
-4 l134 0 -3 118 -3 117 -55 0 c-30 0 -90 -1 -132 -3z m172 -112 l0 -100 -120
0 -120 0 0 93 c0 52 3 97 7 100 3 4 57 7 120 7 l113 0 0 -100z"/>
<path d="M9032 1680 c2 -75 6 -91 23 -104 37 -27 83 -29 120 -6 38 23 50 49
41 86 -8 32 -81 68 -108 53 -22 -12 -38 -4 -38 20 0 18 -18 41 -33 41 -5 0 -7
-40 -5 -90z m130 -17 c25 -22 23 -50 -7 -69 -30 -20 -62 -11 -78 23 -10 22 -8
28 12 44 29 23 49 24 73 2z"/>
<path d="M9484 1742 c-19 -12 -35 -50 -24 -57 5 -3 10 -25 10 -49 0 -29 6 -48
18 -59 24 -22 72 -23 72 -2 0 8 -9 15 -21 15 -18 0 -20 5 -17 47 3 44 5 47 34
50 33 4 43 -11 44 -67 1 -35 23 -60 54 -60 31 0 36 25 6 33 -16 4 -20 14 -20
45 0 32 4 42 20 47 11 3 20 13 20 21 0 8 -4 13 -9 9 -6 -3 -19 5 -30 17 l-21
22 -27 -26 c-30 -28 -64 -25 -76 6 -7 17 -16 20 -33 8z"/>
<path d="M3583 1660 c0 -36 2 -50 4 -32 2 17 2 47 0 65 -2 17 -4 3 -4 -33z"/>
<path d="M9268 1709 c-14 -7 -16 -19 -11 -67 3 -31 10 -63 15 -69 6 -8 36 -12
79 -12 l69 1 0 68 c0 49 -4 71 -16 81 -22 18 -31 0 -28 -55 3 -49 -20 -81 -53
-74 -15 3 -19 14 -21 63 -3 67 -9 78 -34 64z"/>
<path d="M9748 1704 c-55 -30 -62 -73 -17 -115 51 -47 140 -34 167 25 32 71
-71 133 -150 90z m100 -34 c27 -26 27 -35 2 -60 -33 -33 -96 -23 -107 18 -4
19 -1 30 17 44 29 24 61 23 88 -2z"/>
<path d="M9940 1638 c0 -70 2 -79 18 -76 13 2 18 16 22 63 5 57 6 60 34 63 35
4 42 -6 45 -65 2 -54 7 -64 26 -56 21 7 20 101 0 130 -14 19 -24 22 -80 21
l-65 -1 0 -79z"/>
<path d="M6487 1703 c-3 -5 -1 -17 4 -28 7 -17 8 -17 8 8 1 27 -4 34 -12 20z"/>
<path d="M7523 1643 c43 -2 110 -2 150 0 40 1 5 3 -78 3 -82 0 -115 -2 -72 -3z"/>
<path d="M7818 1643 c6 -2 18 -2 25 0 6 3 1 5 -13 5 -14 0 -19 -2 -12 -5z"/>
<path d="M6548 1623 c6 -2 18 -2 25 0 6 3 1 5 -13 5 -14 0 -19 -2 -12 -5z"/>
<path d="M3583 1510 c0 -41 2 -58 4 -37 2 20 2 54 0 75 -2 20 -4 3 -4 -38z"/>
<path d="M5553 1475 c0 -22 2 -30 4 -17 2 12 2 30 0 40 -3 9 -5 -1 -4 -23z"/>
<path d="M5987 1071 c-66 -6 -92 -23 -42 -29 29 -4 34 -18 37 -112 2 -52 6
-65 20 -68 15 -3 18 8 20 85 3 79 5 88 23 91 42 7 48 11 35 27 -7 8 -15 14
-19 13 -3 -1 -36 -4 -74 -7z"/>
<path d="M6227 1073 c-11 -10 -8 -129 3 -158 12 -33 67 -57 110 -49 36 8 70
47 70 81 0 48 -82 99 -120 75 -22 -14 -30 -6 -30 30 0 26 -17 37 -33 21z m131
-95 c7 -7 12 -21 12 -33 0 -29 -19 -45 -53 -45 -46 0 -72 44 -44 75 15 17 69
19 85 3z"/>
<path d="M5153 1058 c-62 -16 -68 -86 -10 -108 50 -18 62 -26 62 -40 0 -23
-33 -36 -55 -22 -28 17 -40 15 -40 -7 0 -11 9 -21 23 -25 89 -24 158 35 106
90 -12 13 -30 24 -39 24 -26 0 -60 29 -53 46 5 13 15 15 49 10 44 -6 63 4 41
21 -20 16 -50 20 -84 11z"/>
<path d="M5734 1057 c-3 -8 -4 -54 -2 -103 3 -75 6 -89 21 -92 14 -3 17 4 17
42 0 39 2 44 18 39 9 -4 33 -25 53 -47 26 -29 40 -38 53 -33 16 6 15 11 -14
43 l-31 36 20 22 c47 50 5 106 -81 106 -31 0 -50 -5 -54 -13z m104 -48 c-7
-48 -68 -51 -68 -4 0 22 4 25 36 25 31 0 35 -3 32 -21z"/>
<path d="M6662 1041 c-24 -32 -28 -51 -12 -51 6 0 10 -17 10 -38 0 -50 23 -82
61 -82 35 0 39 21 7 35 -17 7 -24 20 -26 46 -3 32 0 37 23 43 48 12 65 0 65
-49 0 -46 24 -75 62 -75 25 0 23 26 -2 33 -16 4 -20 14 -20 45 0 32 4 42 20
47 11 3 20 11 20 17 0 5 -9 12 -20 15 -11 3 -20 12 -20 19 0 8 -9 14 -20 14
-11 0 -20 -6 -20 -14 0 -22 -16 -28 -55 -20 -24 4 -35 11 -33 22 5 27 -17 23
-40 -7z"/>
<path d="M5280 1045 c0 -9 9 -15 24 -15 33 0 40 -14 37 -73 -3 -64 7 -107 24
-107 11 0 15 21 17 88 l3 87 33 3 c20 2 32 9 32 18 0 11 -18 14 -85 14 -69 0
-85 -3 -85 -15z"/>
<path d="M5535 994 c-21 -38 -44 -76 -50 -84 -7 -8 -15 -25 -18 -37 -8 -33 17
-29 43 7 19 27 25 29 70 26 37 -3 55 -9 68 -26 12 -15 25 -21 35 -17 14 5 11
15 -23 66 -22 33 -40 64 -40 68 0 4 -11 21 -24 37 l-23 30 -38 -70z m59 -20
c10 -27 7 -34 -19 -34 -27 0 -33 18 -13 38 16 16 25 15 32 -4z"/>
<path d="M6450 960 l0 -71 35 -15 c20 -8 41 -11 48 -7 7 4 25 7 42 8 l30 0 3
78 c2 63 0 77 -12 77 -21 0 -27 -14 -28 -58 0 -48 -19 -75 -50 -70 -20 3 -24
10 -28 63 -4 47 -9 61 -22 63 -16 3 -18 -5 -18 -68z"/>
<path d="M6922 1005 c-50 -42 -28 -115 39 -130 38 -8 95 11 114 38 57 82 -72
160 -153 92z m109 -15 c27 -15 24 -56 -5 -75 -55 -36 -125 25 -80 69 18 18 56
21 85 6z"/>
<path d="M2357 644 c-4 -4 -7 -52 -7 -106 0 -92 1 -98 20 -98 20 0 21 5 18
102 -3 94 -11 121 -31 102z"/>
<path d="M1650 625 c0 -8 9 -15 20 -15 11 0 20 7 20 15 0 8 -9 15 -20 15 -11
0 -20 -7 -20 -15z"/>
<path d="M934 619 c-3 -6 -2 -15 4 -21 13 -13 32 -2 32 18 0 16 -26 19 -36 3z"/>
<path d="M4680 622 l-55 -3 5 -102 5 -102 45 2 c25 1 55 2 68 2 13 1 22 7 22
16 0 11 -12 15 -51 15 -49 0 -50 1 -47 28 2 21 8 27 28 27 30 0 52 13 45 26
-4 5 -22 9 -41 9 -30 0 -34 3 -34 25 0 23 4 25 45 25 32 0 45 4 45 14 0 18
-14 22 -80 18z"/>
<path d="M4865 616 c-90 -39 -84 -147 12 -192 41 -20 86 -10 91 20 4 16 0 18
-28 13 -20 -4 -42 -1 -61 8 -25 13 -29 21 -29 55 0 47 26 70 82 70 39 0 46 8
26 28 -16 16 -55 15 -93 -2z"/>
<path d="M5006 623 c-15 -16 -3 -32 26 -35 l32 -3 4 -75 c2 -41 7 -79 12 -84
20 -20 30 9 30 84 0 78 0 79 28 82 16 2 27 9 27 18 0 12 -16 15 -77 17 -42 1
-79 -1 -82 -4z"/>
<path d="M5306 621 c-13 -20 2 -152 19 -171 35 -38 120 -34 151 8 21 27 17 76
-7 98 -15 13 -36 19 -73 19 -48 0 -51 1 -54 28 -3 26 -25 37 -36 18z m118 -77
c42 -16 41 -69 0 -85 -55 -20 -102 33 -63 72 20 20 36 23 63 13z"/>
<path d="M5888 622 c-10 -2 -18 -8 -18 -14 0 -11 -29 -37 -43 -38 -4 0 -19 12
-32 26 l-25 27 -26 -27 c-25 -24 -26 -27 -10 -44 9 -11 16 -35 16 -58 0 -49
14 -64 58 -64 38 0 41 23 4 28 -19 3 -22 10 -22 47 0 38 3 43 27 48 43 8 53
-1 53 -48 0 -46 22 -75 58 -75 32 0 37 19 8 30 -22 8 -26 16 -26 49 0 30 4 40
20 44 26 7 26 27 1 34 -11 3 -21 13 -23 22 -2 10 -10 15 -20 13z"/>
<path d="M715 607 c-6 -17 -9 -74 -7 -139 l2 -58 38 0 c66 0 109 18 131 54 30
47 27 77 -12 114 -28 27 -43 33 -91 37 -39 3 -58 0 -61 -8z m121 -48 c19 -16
18 -63 -3 -87 -10 -12 -31 -22 -48 -24 -30 -3 -30 -3 -33 56 -4 80 0 87 38 76
18 -5 38 -14 46 -21z"/>
<path d="M4107 606 c-10 -8 -19 -27 -20 -42 -2 -25 4 -32 41 -51 68 -34 76
-43 57 -62 -13 -13 -20 -13 -47 -3 -38 14 -58 2 -38 -23 18 -22 102 -20 123 3
35 39 10 96 -47 106 -42 8 -52 21 -35 42 9 11 23 13 51 9 30 -5 38 -4 38 8 0
27 -91 37 -123 13z"/>
<path d="M4286 612 c-3 -5 -5 -52 -5 -105 l0 -97 68 0 c50 0 70 4 74 14 8 21
-2 26 -55 26 -45 0 -49 2 -46 23 2 17 11 23 38 27 49 7 47 34 -3 38 -33 3 -38
6 -35 25 2 18 9 22 43 22 30 0 41 4 43 18 3 15 -5 17 -57 17 -33 0 -62 -4 -65
-8z"/>
<path d="M4469 588 c-1 -32 0 -155 1 -170 0 -5 27 -8 59 -8 41 0 60 4 64 14 8
20 -2 26 -45 26 l-38 0 -2 63 c-1 34 -1 72 0 85 0 16 -5 22 -19 22 -15 0 -19
-7 -20 -32z"/>
<path d="M1535 583 c-14 -21 -15 -30 -6 -45 6 -10 11 -32 11 -50 0 -18 4 -38
8 -45 11 -17 58 -26 77 -15 14 7 12 11 -14 22 -27 11 -31 17 -31 51 0 29 5 39
20 44 11 3 20 10 20 15 0 4 -9 10 -20 13 -11 3 -20 12 -20 21 0 25 -26 19 -45
-11z"/>
<path d="M1964 581 c-2 -2 -4 -37 -4 -78 0 -66 2 -73 20 -73 16 0 20 7 21 38
1 20 2 42 4 47 1 6 3 15 3 22 2 15 35 25 56 17 12 -4 16 -19 16 -53 0 -43 12
-71 32 -71 4 0 8 29 8 63 0 83 -14 98 -94 94 -31 -1 -59 -4 -62 -6z"/>
<path d="M2187 583 c-16 -15 -5 -24 23 -18 19 4 36 2 45 -5 25 -20 17 -29 -25
-28 -47 0 -70 -15 -70 -47 0 -32 24 -48 77 -51 68 -4 73 0 73 66 0 69 -18 90
-77 90 -22 0 -43 -3 -46 -7z m78 -104 c0 -21 -54 -24 -62 -4 -3 10 0 21 7 25
18 11 55 -4 55 -21z"/>
<path d="M5655 580 c-4 -6 -7 -31 -7 -55 0 -54 -25 -83 -57 -65 -17 9 -21 20
-21 66 0 47 -3 55 -17 52 -14 -2 -19 -15 -21 -58 -4 -85 10 -96 116 -92 l43 2
-3 77 c-3 72 -16 101 -33 73z"/>
<path d="M6001 561 c-39 -36 -39 -60 -2 -100 34 -36 85 -42 132 -14 77 46 39
143 -56 143 -34 0 -50 -6 -74 -29z m110 -11 c12 -7 19 -21 19 -39 0 -23 -7
-31 -31 -42 -27 -10 -36 -10 -58 2 -68 38 1 116 70 79z"/>
<path d="M6210 510 c0 -44 3 -80 8 -80 24 1 37 23 37 66 1 53 24 80 56 63 14
-7 19 -21 19 -57 0 -52 12 -78 29 -68 15 10 14 129 -1 144 -7 7 -40 12 -80 12
l-68 0 0 -80z"/>
<path d="M1657 574 c-4 -4 -7 -38 -7 -76 0 -64 1 -68 23 -68 21 0 22 2 17 72
-5 66 -15 89 -33 72z"/>
<path d="M1755 555 c-55 -54 -14 -128 71 -128 41 0 51 4 76 32 17 19 27 39 24
48 -3 8 -6 21 -6 28 0 18 -62 45 -104 45 -26 0 -44 -7 -61 -25z m118 -19 c21
-16 22 -49 3 -65 -24 -20 -75 -16 -98 7 -20 20 -20 22 -4 46 19 29 68 35 99
12z"/>
<path d="M937 563 c-4 -3 -7 -39 -7 -80 0 -66 2 -73 20 -73 18 0 20 7 20 80 0
60 -3 80 -13 80 -8 0 -17 -3 -20 -7z"/>
<path d="M1010 490 c0 -77 1 -80 23 -80 20 0 22 4 20 42 -2 46 11 78 32 78 8
0 19 9 25 20 9 17 8 20 -8 20 -10 0 -24 -6 -31 -12 -11 -10 -14 -10 -18 0 -3
6 -13 12 -24 12 -17 0 -19 -8 -19 -80z"/>
<path d="M1158 549 c-54 -40 -26 -116 49 -135 31 -8 85 7 91 25 3 10 -7 12
-44 9 -64 -4 -65 15 -4 49 57 32 65 45 37 60 -34 19 -98 15 -129 -8z m82 -12
c0 -15 -54 -49 -64 -40 -12 12 -6 22 22 37 34 19 42 19 42 3z"/>
<path d="M1357 541 c-30 -36 -26 -72 11 -101 26 -21 95 -27 121 -11 20 13 -6
26 -47 22 -39 -3 -62 13 -62 44 0 30 17 43 64 47 64 5 58 28 -7 28 -49 0 -58
-3 -80 -29z"/>
<path d="M2928 413 c94 -2 250 -2 345 0 94 1 17 3 -173 3 -190 0 -267 -2 -172
-3z"/>
<path d="M718 233 c6 -2 18 -2 25 0 6 3 1 5 -13 5 -14 0 -19 -2 -12 -5z"/>
<path d="M0 30 l0 -30 5445 0 5445 0 0 30 0 30 -5445 0 -5445 0 0 -30z"/>
</g>
</svg>
